<svg width="101" height="100" viewBox="0 0 101 100" fill="none" xmlns="http://www.w3.org/2000/svg">
<ellipse cx="50.4994" cy="50" rx="49.974" ry="50" fill="#DCA945"/>
<ellipse cx="50.4987" cy="50" rx="39.9792" ry="40" fill="#1C231C"/>
<path d="M43.04 41.7734C42.7015 41.1354 42.9294 40.6406 43.7236 40.2891C44.4788 39.9505 45.2666 39.4753 46.0869 38.8633C46.9072 38.2513 47.5778 37.6198 48.0986 36.9688C48.6846 36.2396 49.2445 35.875 49.7783 35.875H52.8838C53.665 35.875 54.0557 36.2656 54.0557 37.0469V62.8281C54.0557 63.6094 53.665 64 52.8838 64H49.7588C48.9775 64 48.5869 63.6094 48.5869 62.8281V44.2539C48.5869 43.7331 48.613 43.2122 48.665 42.6914H48.5869C48.1833 43.1992 47.7406 43.6354 47.2588 44C46.777 44.3646 46.2887 44.651 45.7939 44.8594C45.182 45.1198 44.7197 44.9505 44.4072 44.3516L43.04 41.7734Z" fill="#DCA945"/>
</svg>
