<svg width="102" height="780" viewBox="0 0 102 780" fill="none" xmlns="http://www.w3.org/2000/svg">
<ellipse cx="50.4999" cy="50" rx="49.974" ry="50" fill="#DCA945"/>
<ellipse cx="50.4997" cy="50" rx="39.9792" ry="40" fill="#1C231C"/>
<path d="M43.0405 41.7734C42.702 41.1354 42.9299 40.6406 43.7241 40.2891C44.4793 39.9505 45.2671 39.4753 46.0874 38.8633C46.9077 38.2513 47.5783 37.6198 48.0991 36.9688C48.6851 36.2396 49.245 35.875 49.7788 35.875H52.8843C53.6655 35.875 54.0562 36.2656 54.0562 37.0469V62.8281C54.0562 63.6094 53.6655 64 52.8843 64H49.7593C48.978 64 48.5874 63.6094 48.5874 62.8281V44.2539C48.5874 43.7331 48.6134 43.2122 48.6655 42.6914H48.5874C48.1838 43.1992 47.741 43.6354 47.2593 44C46.7775 44.3646 46.2892 44.651 45.7944 44.8594C45.1825 45.1198 44.7202 44.9505 44.4077 44.3516L43.0405 41.7734Z" fill="#DCA945"/>
<ellipse cx="50.4999" cy="560" rx="49.974" ry="50" fill="#DCA945"/>
<ellipse cx="50.4997" cy="560" rx="39.9792" ry="40" fill="#1C231C"/>
<path d="M41.9858 567.906C41.1395 567.906 40.7163 567.483 40.7163 566.637V564.059C40.7163 563.316 40.9116 562.672 41.3022 562.125L52.1226 546.891C52.6043 546.214 53.2098 545.875 53.939 545.875H56.8101C57.6694 545.875 58.0991 546.298 58.0991 547.145V563.062H60.4624C61.3088 563.062 61.7319 563.486 61.7319 564.332V566.637C61.7319 567.483 61.3153 567.906 60.4819 567.906H58.0991V572.73C58.0991 573.577 57.6759 574 56.8296 574H53.8999C53.0535 574 52.6304 573.577 52.6304 572.73V567.906H41.9858ZM46.1655 563.062H52.6304V555.504C52.6304 554.983 52.6564 554.462 52.7085 553.941H52.6304L46.1655 563.062Z" fill="#DCA945"/>
<ellipse cx="50.4999" cy="730" rx="49.974" ry="50" fill="#DCA945"/>
<ellipse cx="50.4997" cy="730" rx="39.9792" ry="40" fill="#1C231C"/>
<path d="M41.9468 742.027C41.5171 741.454 41.4585 740.96 41.771 740.543L43.1382 738.668C43.6851 737.913 44.3491 737.893 45.1304 738.609C45.5991 739.039 46.3218 739.43 47.2983 739.781C48.2749 740.12 49.2515 740.289 50.228 740.289C51.7124 740.289 52.9624 739.872 53.978 739.039C55.0067 738.206 55.521 736.988 55.521 735.387C55.521 733.863 55.1955 732.633 54.5444 731.695C53.8934 730.758 53.1056 730.289 52.1812 730.289C51.3869 730.289 50.6577 730.354 49.9937 730.484C49.3296 730.602 48.6395 730.973 47.9233 731.598C47.4285 732.027 46.8296 732.242 46.1265 732.242H43.9976C43.1512 732.242 42.728 731.819 42.728 730.973V717.496C42.728 716.65 43.1512 716.227 43.9976 716.227H58.0601C58.9064 716.227 59.3296 716.65 59.3296 717.496V719.801C59.3296 720.647 58.9064 721.07 58.0601 721.07H48.1968V725.855C48.1968 726.376 48.1707 726.897 48.1187 727.418H48.2358C48.9259 726.819 49.6942 726.422 50.5405 726.227C51.3869 726.018 52.2918 725.914 53.2554 725.914C55.534 725.914 57.4546 726.695 59.0171 728.258C60.5926 729.807 61.3804 732.21 61.3804 735.465C61.3804 738.46 60.3778 740.745 58.3726 742.32C56.3804 743.883 54.0106 744.664 51.2632 744.664C48.9715 744.664 46.9858 744.417 45.3062 743.922C43.6395 743.414 42.5197 742.783 41.9468 742.027Z" fill="#DCA945"/>
<ellipse cx="50.4999" cy="220" rx="49.974" ry="50" fill="#DCA945"/>
<ellipse cx="50.4997" cy="220" rx="39.9792" ry="40" fill="#1C231C"/>
<path d="M42.689 234C41.7124 234 41.2241 233.577 41.2241 232.73V231.793C41.2241 231.116 41.5366 230.445 42.1616 229.781L48.0015 223.629C49.7593 221.767 51.3674 220.113 52.8257 218.668C54.284 217.21 55.0132 215.738 55.0132 214.254C55.0132 212.77 54.6421 211.682 53.8999 210.992C53.1707 210.289 52.2397 209.938 51.1069 209.938C49.3101 209.938 48.0601 210.354 47.3569 211.188C46.6538 212.021 46.146 212.913 45.8335 213.863C45.534 214.788 44.9871 215.12 44.1929 214.859L42.2202 214.195C41.5822 213.974 41.3999 213.362 41.6733 212.359C42.1812 210.497 43.2163 208.902 44.7788 207.574C46.3413 206.233 48.659 205.562 51.7319 205.562C54.9351 205.562 57.2593 206.389 58.7046 208.043C60.1499 209.684 60.8726 211.467 60.8726 213.395C60.8726 215.921 59.8179 218.141 57.7085 220.055C55.5991 221.956 53.6851 223.811 51.9663 225.621L48.646 229.117V229.234C49.4272 229.182 50.0783 229.156 50.5991 229.156H59.7202C60.6968 229.156 61.1851 229.579 61.1851 230.426V232.73C61.1851 233.577 60.6968 234 59.7202 234H42.689Z" fill="#DCA945"/>
<ellipse cx="51.4994" cy="390" rx="49.974" ry="50" fill="#DCA945"/>
<ellipse cx="51.4992" cy="390" rx="39.9792" ry="40" fill="#1C231C"/>
<path d="M43.1025 402.008C42.5947 401.578 42.5557 400.966 42.9854 400.172L43.8838 398.531C44.3135 397.737 45.0101 397.678 45.9736 398.355C46.7809 398.928 47.6924 399.397 48.708 399.762C49.7236 400.113 50.8564 400.289 52.1064 400.289C53.8252 400.289 55.0557 399.827 55.7979 398.902C56.54 397.965 56.9111 396.917 56.9111 395.758C56.9111 394.573 56.4684 393.512 55.583 392.574C54.7106 391.624 53.4736 391.148 51.8721 391.148H50.3682C49.5218 391.148 49.0986 390.803 49.0986 390.113V387.965C49.0986 387.249 49.5218 386.891 50.3682 386.891H51.54C52.738 386.891 53.7926 386.52 54.7041 385.777C55.6286 385.035 56.0908 384.104 56.0908 382.984C56.0908 382.112 55.7848 381.389 55.1729 380.816C54.5739 380.23 53.5908 379.938 52.2236 379.938C50.9346 379.938 49.8213 380.126 48.8838 380.504C47.9463 380.882 47.2041 381.337 46.6572 381.871C45.876 382.639 45.2054 382.607 44.6455 381.773L43.5127 380.113C43.083 379.488 43.2132 378.85 43.9033 378.199C44.8408 377.301 46.0518 376.637 47.5361 376.207C49.0205 375.777 50.4723 375.562 51.8916 375.562C55.238 375.562 57.7249 376.233 59.3525 377.574C60.9801 378.902 61.7939 380.53 61.7939 382.457C61.7939 383.889 61.234 385.198 60.1143 386.383C58.9945 387.555 57.8096 388.362 56.5596 388.805V388.883C58.0439 389.247 59.4502 390.048 60.7783 391.285C62.1064 392.509 62.7705 394.033 62.7705 395.855C62.7705 398.707 61.8721 400.888 60.0752 402.398C58.2783 403.909 55.5374 404.664 51.8525 404.664C50.3031 404.664 48.695 404.43 47.0283 403.961C45.3747 403.479 44.0661 402.828 43.1025 402.008Z" fill="#DCA945"/>
<line x1="50.4985" y1="171" x2="50.4985" y2="99" stroke="#DCA945" stroke-width="4"/>
<line x1="50.4985" y1="342" x2="50.4985" y2="270" stroke="#DCA945" stroke-width="4"/>
<line x1="50.4985" y1="513" x2="50.4985" y2="439" stroke="#DCA945" stroke-width="4"/>
<line x1="50.4985" y1="684" x2="50.4985" y2="609" stroke="#DCA945" stroke-width="4"/>
</svg>
