<svg width="101" height="100" viewBox="0 0 101 100" fill="none" xmlns="http://www.w3.org/2000/svg">
<ellipse cx="50.4994" cy="50" rx="49.974" ry="50" fill="#DCA945"/>
<ellipse cx="50.4987" cy="50" rx="39.9792" ry="40" fill="#1C231C"/>
<path d="M42.6885 64C41.7119 64 41.2236 63.5768 41.2236 62.7305V61.793C41.2236 61.1159 41.5361 60.4453 42.1611 59.7812L48.001 53.6289C49.7588 51.7669 51.3669 50.1133 52.8252 48.668C54.2835 47.2096 55.0127 45.7383 55.0127 44.2539C55.0127 42.7695 54.6416 41.6823 53.8994 40.9922C53.1702 40.2891 52.2393 39.9375 51.1064 39.9375C49.3096 39.9375 48.0596 40.3542 47.3564 41.1875C46.6533 42.0208 46.1455 42.9128 45.833 43.8633C45.5335 44.7878 44.9867 45.1198 44.1924 44.8594L42.2197 44.1953C41.5817 43.974 41.3994 43.362 41.6729 42.3594C42.1807 40.4974 43.2158 38.9023 44.7783 37.5742C46.3408 36.2331 48.6585 35.5625 51.7314 35.5625C54.9346 35.5625 57.2588 36.3893 58.7041 38.043C60.1494 39.6836 60.8721 41.4674 60.8721 43.3945C60.8721 45.9206 59.8174 48.1406 57.708 50.0547C55.5986 51.9557 53.6846 53.8112 51.9658 55.6211L48.6455 59.1172V59.2344C49.4268 59.1823 50.0778 59.1562 50.5986 59.1562H59.7197C60.6963 59.1562 61.1846 59.5794 61.1846 60.4258V62.7305C61.1846 63.5768 60.6963 64 59.7197 64H42.6885Z" fill="#DCA945"/>
</svg>
