<svg width="101" height="100" viewBox="0 0 101 100" fill="none" xmlns="http://www.w3.org/2000/svg">
<ellipse cx="50.4994" cy="50" rx="49.974" ry="50" fill="#DCA945"/>
<ellipse cx="50.4987" cy="50" rx="39.9792" ry="40" fill="#1C231C"/>
<path d="M42.1016 62.0078C41.5938 61.5781 41.5547 60.9661 41.9844 60.1719L42.8828 58.5312C43.3125 57.737 44.0091 57.6784 44.9727 58.3555C45.7799 58.9284 46.6914 59.3971 47.707 59.7617C48.7227 60.1133 49.8555 60.2891 51.1055 60.2891C52.8242 60.2891 54.0547 59.8268 54.7969 58.9023C55.5391 57.9648 55.9102 56.9167 55.9102 55.7578C55.9102 54.5729 55.4674 53.5117 54.582 52.5742C53.7096 51.6237 52.4727 51.1484 50.8711 51.1484H49.3672C48.5208 51.1484 48.0977 50.8034 48.0977 50.1133V47.9648C48.0977 47.2487 48.5208 46.8906 49.3672 46.8906H50.5391C51.737 46.8906 52.7917 46.5195 53.7031 45.7773C54.6276 45.0352 55.0898 44.1042 55.0898 42.9844C55.0898 42.112 54.7839 41.3893 54.1719 40.8164C53.5729 40.2305 52.5898 39.9375 51.2227 39.9375C49.9336 39.9375 48.8203 40.1263 47.8828 40.5039C46.9453 40.8815 46.2031 41.3372 45.6562 41.8711C44.875 42.6393 44.2044 42.6068 43.6445 41.7734L42.5117 40.1133C42.082 39.4883 42.2122 38.8503 42.9023 38.1992C43.8398 37.3008 45.0508 36.6367 46.5352 36.207C48.0195 35.7773 49.4714 35.5625 50.8906 35.5625C54.237 35.5625 56.724 36.2331 58.3516 37.5742C59.9792 38.9023 60.793 40.5299 60.793 42.457C60.793 43.8893 60.2331 45.1979 59.1133 46.3828C57.9935 47.5547 56.8086 48.362 55.5586 48.8047V48.8828C57.043 49.2474 58.4492 50.0482 59.7773 51.2852C61.1055 52.5091 61.7695 54.0326 61.7695 55.8555C61.7695 58.707 60.8711 60.888 59.0742 62.3984C57.2773 63.9089 54.5365 64.6641 50.8516 64.6641C49.3021 64.6641 47.694 64.4297 46.0273 63.9609C44.3737 63.4792 43.0651 62.8281 42.1016 62.0078Z" fill="#DCA945"/>
</svg>
