<svg width="101" height="100" viewBox="0 0 101 100" fill="none" xmlns="http://www.w3.org/2000/svg">
<ellipse cx="50.4994" cy="50" rx="49.974" ry="50" fill="#DCA945"/>
<ellipse cx="50.4987" cy="50" rx="39.9792" ry="40" fill="#1C231C"/>
<path d="M41.9854 57.9062C41.139 57.9062 40.7158 57.4831 40.7158 56.6367V54.0586C40.7158 53.3164 40.9111 52.6719 41.3018 52.125L52.1221 36.8906C52.6038 36.2135 53.2093 35.875 53.9385 35.875H56.8096C57.6689 35.875 58.0986 36.2982 58.0986 37.1445V53.0625H60.4619C61.3083 53.0625 61.7314 53.4857 61.7314 54.332V56.6367C61.7314 57.4831 61.3148 57.9062 60.4814 57.9062H58.0986V62.7305C58.0986 63.5768 57.6755 64 56.8291 64H53.8994C53.0531 64 52.6299 63.5768 52.6299 62.7305V57.9062H41.9854ZM46.165 53.0625H52.6299V45.5039C52.6299 44.9831 52.6559 44.4622 52.708 43.9414H52.6299L46.165 53.0625Z" fill="#DCA945"/>
</svg>
