<svg width="101" height="100" viewBox="0 0 101 100" fill="none" xmlns="http://www.w3.org/2000/svg">
<ellipse cx="50.4994" cy="50" rx="49.974" ry="50" fill="#DCA945"/>
<ellipse cx="50.4987" cy="50" rx="39.9792" ry="40" fill="#1C231C"/>
<path d="M41.9463 62.0273C41.5166 61.4544 41.458 60.9596 41.7705 60.543L43.1377 58.668C43.6846 57.9128 44.3486 57.8932 45.1299 58.6094C45.5986 59.0391 46.3213 59.4297 47.2979 59.7812C48.2744 60.1198 49.251 60.2891 50.2275 60.2891C51.7119 60.2891 52.9619 59.8724 53.9775 59.0391C55.0062 58.2057 55.5205 56.9883 55.5205 55.3867C55.5205 53.8633 55.195 52.6328 54.5439 51.6953C53.8929 50.7578 53.1051 50.2891 52.1807 50.2891C51.3864 50.2891 50.6572 50.3542 49.9932 50.4844C49.3291 50.6016 48.639 50.9727 47.9229 51.5977C47.4281 52.0273 46.8291 52.2422 46.126 52.2422H43.9971C43.1507 52.2422 42.7275 51.819 42.7275 50.9727V37.4961C42.7275 36.6497 43.1507 36.2266 43.9971 36.2266H58.0596C58.9059 36.2266 59.3291 36.6497 59.3291 37.4961V39.8008C59.3291 40.6471 58.9059 41.0703 58.0596 41.0703H48.1963V45.8555C48.1963 46.3763 48.1702 46.8971 48.1182 47.418H48.2354C48.9255 46.819 49.6937 46.4219 50.54 46.2266C51.3864 46.0182 52.2913 45.9141 53.2549 45.9141C55.5335 45.9141 57.4541 46.6953 59.0166 48.2578C60.5921 49.8073 61.3799 52.2096 61.3799 55.4648C61.3799 58.4596 60.3773 60.7448 58.3721 62.3203C56.3799 63.8828 54.0101 64.6641 51.2627 64.6641C48.971 64.6641 46.9854 64.4167 45.3057 63.9219C43.639 63.4141 42.5192 62.7826 41.9463 62.0273Z" fill="#DCA945"/>
</svg>
