<svg width="40" height="40" viewBox="0 0 40 40" fill="none" xmlns="http://www.w3.org/2000/svg">
<path d="M36.6673 16.6663V21.6663C36.6673 28.333 33.334 31.6663 26.6673 31.6663H25.834C25.3173 31.6663 24.8173 31.9163 24.5007 32.333L22.0007 35.6663C20.9007 37.133 19.1007 37.133 18.0007 35.6663L15.5007 32.333C15.234 31.9663 14.6173 31.6663 14.1673 31.6663H13.334C6.66732 31.6663 3.33398 29.9997 3.33398 21.6663V13.333C3.33398 6.66634 6.66732 3.33301 13.334 3.33301H23.334" stroke="#DCA945" stroke-width="4" stroke-miterlimit="10" stroke-linecap="round" stroke-linejoin="round"/>
<path d="M32.5007 11.6663C34.8018 11.6663 36.6673 9.80086 36.6673 7.49967C36.6673 5.19849 34.8018 3.33301 32.5007 3.33301C30.1995 3.33301 28.334 5.19849 28.334 7.49967C28.334 9.80086 30.1995 11.6663 32.5007 11.6663Z" stroke="#DCA945" stroke-width="4" stroke-linecap="round" stroke-linejoin="round"/>
<path d="M26.6601 18.3333H26.6751" stroke="#DCA945" stroke-width="4" stroke-linecap="round" stroke-linejoin="round"/>
<path d="M19.9921 18.3333H20.0071" stroke="#DCA945" stroke-width="4" stroke-linecap="round" stroke-linejoin="round"/>
<path d="M13.3242 18.3333H13.3391" stroke="#DCA945" stroke-width="4" stroke-linecap="round" stroke-linejoin="round"/>
</svg>
