<svg width="205" height="30" viewBox="0 0 205 30" fill="none" xmlns="http://www.w3.org/2000/svg">
<path d="M1.29688 29C0.645833 29 0.320312 28.6419 0.320312 27.9258V2.06641C0.320312 1.35026 0.645833 0.992188 1.29688 0.992188H9.5C13.9271 0.992188 16.9154 1.74089 18.4648 3.23828C20.0143 4.72266 20.7891 6.76693 20.7891 9.37109C20.7891 11.9753 20.0143 14.026 18.4648 15.5234C16.9154 17.0078 13.9271 17.75 9.5 17.75H4.07031V27.9258C4.07031 28.6419 3.74479 29 3.09375 29H1.29688ZM4.07031 14.5469H9.55859C12.4232 14.5469 14.3763 14.1432 15.418 13.3359C16.4596 12.5156 16.9805 11.194 16.9805 9.37109C16.9805 7.54818 16.4596 6.23307 15.418 5.42578C14.3763 4.60547 12.4232 4.19531 9.55859 4.19531H4.07031V14.5469ZM24.3438 14.9961C24.3438 10.4388 25.4635 6.87109 27.7031 4.29297C29.9557 1.70182 33.1979 0.40625 37.4297 0.40625C41.6615 0.40625 44.8971 1.70182 47.1367 4.29297C49.3893 6.87109 50.5156 10.4388 50.5156 14.9961C50.5156 19.5534 49.3893 23.1276 47.1367 25.7188C44.8971 28.2969 41.6615 29.5859 37.4297 29.5859C33.1979 29.5859 29.9557 28.2969 27.7031 25.7188C25.4635 23.1276 24.3438 19.5534 24.3438 14.9961ZM28.3477 14.9961C28.3477 18.6419 29.0964 21.4805 30.5938 23.5117C32.0911 25.5299 34.3698 26.5391 37.4297 26.5391C40.4896 26.5391 42.7682 25.5299 44.2656 23.5117C45.763 21.4805 46.5117 18.6419 46.5117 14.9961C46.5117 11.3503 45.763 8.51823 44.2656 6.5C42.7682 4.46875 40.4896 3.45312 37.4297 3.45312C34.3698 3.45312 32.0911 4.46875 30.5938 6.5C29.0964 8.51823 28.3477 11.3503 28.3477 14.9961ZM56.6094 29C55.9583 29 55.6328 28.6419 55.6328 27.9258V2.06641C55.6328 1.35026 55.9583 0.992188 56.6094 0.992188H58.4062C59.0573 0.992188 59.3828 1.35026 59.3828 2.06641V25.7969H72.332C73.0482 25.7969 73.4062 26.0898 73.4062 26.6758V28.1211C73.4062 28.707 73.0482 29 72.332 29H56.6094ZM71.082 2.28125C70.5221 1.42188 70.6979 0.992188 71.6094 0.992188H73.7969C74.3698 0.992188 74.8385 1.3112 75.2031 1.94922L80.1641 10.4844C80.7109 11.4219 81.1797 12.2422 81.5703 12.9453C81.9609 13.6354 82.3385 14.3711 82.7031 15.1523H82.7812C83.1458 14.3711 83.5234 13.6354 83.9141 12.9453C84.3047 12.2422 84.7734 11.4219 85.3203 10.4844L90.2812 1.94922C90.6458 1.3112 91.1146 0.992188 91.6875 0.992188H93.875C94.7865 0.992188 94.9622 1.42188 94.4023 2.28125L84.6172 17.4766V27.9258C84.6172 28.6419 84.2917 29 83.6406 29H81.8438C81.1927 29 80.8672 28.6419 80.8672 27.9258V17.4766L71.082 2.28125ZM98.9141 29C98.263 29 97.9375 28.6419 97.9375 27.9258V2.06641C97.9375 1.35026 98.263 0.992188 98.9141 0.992188H114.832C115.548 0.992188 115.906 1.28516 115.906 1.87109V3.31641C115.906 3.90234 115.548 4.19531 114.832 4.19531H101.688V13.4531H113.152C113.868 13.4531 114.227 13.7461 114.227 14.332V15.7773C114.227 16.3633 113.868 16.6562 113.152 16.6562H101.688V27.9258C101.688 28.6419 101.362 29 100.711 29H98.9141ZM119.188 14.9961C119.188 10.4388 120.307 6.87109 122.547 4.29297C124.799 1.70182 128.042 0.40625 132.273 0.40625C136.505 0.40625 139.741 1.70182 141.98 4.29297C144.233 6.87109 145.359 10.4388 145.359 14.9961C145.359 19.5534 144.233 23.1276 141.98 25.7188C139.741 28.2969 136.505 29.5859 132.273 29.5859C128.042 29.5859 124.799 28.2969 122.547 25.7188C120.307 23.1276 119.188 19.5534 119.188 14.9961ZM123.191 14.9961C123.191 18.6419 123.94 21.4805 125.438 23.5117C126.935 25.5299 129.214 26.5391 132.273 26.5391C135.333 26.5391 137.612 25.5299 139.109 23.5117C140.607 21.4805 141.355 18.6419 141.355 14.9961C141.355 11.3503 140.607 8.51823 139.109 6.5C137.612 4.46875 135.333 3.45312 132.273 3.45312C129.214 3.45312 126.935 4.46875 125.438 6.5C123.94 8.51823 123.191 11.3503 123.191 14.9961ZM151.453 29C150.802 29 150.477 28.6419 150.477 27.9258V2.06641C150.477 1.35026 150.802 0.992188 151.453 0.992188H160.887C164.65 0.992188 167.371 1.69531 169.051 3.10156C170.743 4.50781 171.59 6.36328 171.59 8.66797C171.59 10.6992 170.906 12.4049 169.539 13.7852C168.185 15.1654 166.251 15.9596 163.738 16.168V16.207C165.066 17.1966 165.945 17.9518 166.375 18.4727C166.805 18.9805 167.286 19.6706 167.82 20.543L172.234 27.7109C172.768 28.5703 172.651 29 171.883 29H169.656C169.044 29 168.589 28.7461 168.289 28.2383L164.227 21.2656C163.641 20.263 162.801 19.2799 161.707 18.3164C160.613 17.3529 159.253 16.8711 157.625 16.8711H154.227V27.9258C154.227 28.6419 153.901 29 153.25 29H151.453ZM154.227 13.668H159.871C162.41 13.668 164.363 13.3359 165.73 12.6719C167.098 11.9948 167.781 10.582 167.781 8.43359C167.781 6.79297 167.156 5.67969 165.906 5.09375C164.656 4.49479 162.957 4.19531 160.809 4.19531H154.227V13.668ZM178.68 29C178.029 29 177.703 28.6419 177.703 27.9258V2.06641C177.703 1.35026 178.029 0.992188 178.68 0.992188H182.84C183.335 0.992188 183.706 1.38281 183.953 2.16406L189.539 19.6836C190.112 21.4805 190.451 22.5677 190.555 22.9453C190.659 23.3099 190.809 23.987 191.004 24.9766H191.121C191.316 23.987 191.466 23.3099 191.57 22.9453C191.674 22.5677 192.013 21.4805 192.586 19.6836L198.172 2.16406C198.419 1.38281 198.79 0.992188 199.285 0.992188H203.445C204.096 0.992188 204.422 1.35026 204.422 2.06641V27.9258C204.422 28.6419 204.096 29 203.445 29H201.648C200.997 29 200.672 28.6419 200.672 27.9258V7.4375C200.672 6.91667 200.685 6.39583 200.711 5.875H200.633L193.426 27.8086C193.165 28.6029 192.736 29 192.137 29H189.988C189.389 29 188.96 28.6029 188.699 27.8086L181.492 5.875H181.414C181.44 6.39583 181.453 6.91667 181.453 7.4375V27.9258C181.453 28.6419 181.128 29 180.477 29H178.68Z" fill="#DCA945"/>
</svg>
