<svg width="40" height="40" viewBox="0 0 40 40" fill="none" xmlns="http://www.w3.org/2000/svg">
<path d="M19.9993 20.0002C24.6017 20.0002 28.3327 16.2692 28.3327 11.6668C28.3327 7.06446 24.6017 3.3335 19.9993 3.3335C15.397 3.3335 11.666 7.06446 11.666 11.6668C11.666 16.2692 15.397 20.0002 19.9993 20.0002Z" stroke="#DCA945" stroke-width="4" stroke-linecap="round" stroke-linejoin="round"/>
<path d="M5.68359 36.6667C5.68359 30.2167 12.1003 25 20.0003 25C21.6003 25 23.1503 25.2167 24.6003 25.6167" stroke="#DCA945" stroke-width="4" stroke-linecap="round" stroke-linejoin="round"/>
<path d="M36.6673 30.0002C36.6673 30.5335 36.6007 31.0502 36.4673 31.5502C36.3173 32.2168 36.0507 32.8668 35.7007 33.4335C34.5507 35.3668 32.434 36.6668 30.0007 36.6668C28.284 36.6668 26.734 36.0168 25.5673 34.9501C25.0673 34.5168 24.634 34.0002 24.3006 33.4335C23.684 32.4335 23.334 31.2502 23.334 30.0002C23.334 28.2002 24.0507 26.5502 25.2173 25.3502C26.434 24.1002 28.134 23.3335 30.0007 23.3335C31.9673 23.3335 33.7507 24.1835 34.9507 25.5502C36.0173 26.7335 36.6673 28.3002 36.6673 30.0002Z" stroke="#DCA945" stroke-width="4" stroke-miterlimit="10" stroke-linecap="round" stroke-linejoin="round"/>
<path d="M32.4842 29.9663H27.5176" stroke="#DCA945" stroke-width="2.5" stroke-miterlimit="10" stroke-linecap="round" stroke-linejoin="round"/>
<path d="M30 27.5332V32.5165" stroke="#DCA945" stroke-width="2.5" stroke-miterlimit="10" stroke-linecap="round" stroke-linejoin="round"/>
</svg>
