<svg width="40" height="40" viewBox="0 0 40 40" fill="none" xmlns="http://www.w3.org/2000/svg">
<path d="M19.9993 20.0002C24.6017 20.0002 28.3327 16.2692 28.3327 11.6668C28.3327 7.06446 24.6017 3.3335 19.9993 3.3335C15.397 3.3335 11.666 7.06446 11.666 11.6668C11.666 16.2692 15.397 20.0002 19.9993 20.0002Z" stroke="#DCA945" stroke-width="4" stroke-linecap="round" stroke-linejoin="round"/>
<path d="M5.68359 36.6667C5.68359 30.2167 12.1003 25 20.0003 25C21.6003 25 23.1503 25.2167 24.6003 25.6167" stroke="#DCA945" stroke-width="4" stroke-linecap="round" stroke-linejoin="round"/>
<path d="M36.6673 30.0002C36.6673 31.2502 36.3173 32.4335 35.7007 33.4335C35.3507 34.0335 34.9007 34.5668 34.384 35.0002C33.2173 36.0502 31.684 36.6668 30.0007 36.6668C27.5673 36.6668 25.4506 35.3668 24.3006 33.4335C23.684 32.4335 23.334 31.2502 23.334 30.0002C23.334 27.9002 24.3007 26.0168 25.834 24.8002C26.984 23.8835 28.434 23.3335 30.0007 23.3335C33.684 23.3335 36.6673 26.3168 36.6673 30.0002Z" stroke="#DCA945" stroke-width="4" stroke-miterlimit="10" stroke-linecap="round" stroke-linejoin="round"/>
<path d="M27.4004 30.0005L29.0504 31.6505L32.6004 28.3672" stroke="#DCA945" stroke-width="2.5" stroke-linecap="round" stroke-linejoin="round"/>
</svg>
