<svg width="69" height="75" viewBox="0 0 69 75" fill="none" xmlns="http://www.w3.org/2000/svg">
<path fill-rule="evenodd" clip-rule="evenodd" d="M31.4715 0.619838C33.8061 -0.220522 36.3628 -0.206993 38.6884 0.658022L61.7717 9.24418C65.8836 10.7736 68.6111 14.6983 68.6111 19.0854V48.5907C68.6111 52.1729 66.7849 55.5078 63.7668 57.4373L38.8789 73.3485C35.2843 75.6466 30.6566 75.5412 27.1704 73.0818L4.94731 57.4046C2.15862 55.4373 0.5 52.2374 0.5 48.8247V19.1484C0.5 14.7206 3.27763 10.7687 7.44375 9.269L31.4715 0.619838ZM36.9452 5.34433C35.7271 4.89123 34.3879 4.88414 33.165 5.32433L9.1372 13.9735C6.95495 14.759 5.5 16.8291 5.5 19.1484V48.8247C5.5 50.6123 6.3688 52.2884 7.82955 53.3189L30.0527 68.9962C31.8788 70.2844 34.3028 70.3396 36.1857 69.1359L61.0736 53.2247C62.6545 52.214 63.6111 50.4671 63.6111 48.5907V19.0854C63.6111 16.7874 62.1824 14.7316 60.0286 13.9305L36.9452 5.34433ZM27.8791 19.8804C32.0321 16.2677 38.2701 16.4753 42.1736 20.3562L50.5151 28.6493C54.5509 32.6617 54.6557 39.1587 50.7514 43.2991L41.4059 53.2098C37.2614 57.605 30.272 57.605 26.1274 53.2098L17.1498 43.6892C13.058 39.35 13.3978 32.4781 17.8975 28.5637L27.8791 19.8804ZM38.6484 23.902C36.6037 21.8691 33.3362 21.7604 31.1608 23.6528L21.1792 32.336C18.8222 34.3864 18.6442 37.986 20.7875 40.2589L29.7651 49.7795C31.9361 52.0818 35.5972 52.0818 37.7682 49.7795L47.1137 39.8688C49.1588 37.7 49.1039 34.2968 46.9899 32.1951L38.6484 23.902ZM38.6333 32.5687C38.6333 31.188 37.514 30.0687 36.1333 30.0687C34.7526 30.0687 33.6333 31.188 33.6333 32.5687V32.5689V32.5691V32.5694V32.5698V32.5703V32.5709V32.5716V32.5723V32.5732V32.5741V32.5751V32.5762V32.5774V32.5787V32.58V32.5814V32.583V32.5846V32.5863V32.588V32.5899V32.5918V32.5939V32.596V32.5982V32.6004V32.6028V32.6052V32.6077V32.6103V32.613V32.6158V32.6186V32.6215V32.6245V32.6276V32.6307V32.634V32.6373V32.6406V32.6441V32.6476V32.6513V32.6549V32.6587V32.6626V32.6665V32.6705V32.6745V32.6787V32.6829V32.6872V32.6915V32.696V32.7005V32.7051V32.7097V32.7144V32.7192V32.7241V32.7291V32.7341V32.7391V32.7443V32.7495V32.7548V32.7602V32.7656V32.7711V32.7767V32.7823V32.788V32.7938V32.7996V32.8055V32.8115V32.8175V32.8236V32.8298V32.836V32.8423V32.8487V32.8551V32.8616V32.8681V32.8747V32.8814V32.8882V32.895V32.9018V32.9088V32.9158V32.9228V32.9299V32.9371V32.9443V32.9516V32.959V32.9664V32.9739V32.9814V32.989V32.9966V33.0043V33.0121V33.0199V33.0278V33.0357V33.0437V33.0518V33.0598V33.068V33.0762V33.0845V33.0928V33.1012V33.1096V33.1181V33.1266V33.1352V33.1439V33.1525V33.1613V33.1701V33.1789V33.1878V33.1968V33.2058V33.2148V33.2239V33.2331V33.2423V33.2515V33.2608V33.2702V33.2796V33.289V33.2985V33.308V33.3176V33.3273V33.3369V33.3467V33.3564V33.3662V33.3761V33.386V33.3959V33.4059V33.416V33.426V33.4362V33.4463V33.4565V33.4668V33.4771V33.4874V33.4978V33.5082V33.5186V33.5291V33.5397V33.5502V33.5609V33.5715V33.5822V33.5929V33.6037V33.6145V33.6254V33.6362V33.6472V33.6581V33.6691V33.6801V33.6912V33.7023V33.7134V33.7246V33.7358V33.747V33.7583V33.7696V33.781V33.7923V33.8037V33.8152V33.8266V33.8381V33.8497V33.8612V33.8728V33.8845V33.8961V33.9078V33.9195V33.9313V33.943V33.9548V33.9667V33.9785V33.9904V34.0023V34.0143V34.0262V34.0382V34.0502V34.0623V34.0744V34.0864V34.0986V34.1107V34.1229V34.1351V34.1473V34.1595V34.1718V34.1841V34.1964V34.2087V34.2211V34.2335V34.2459V34.2583V34.2707V34.2832V34.2957V34.3082V34.3207V34.3332V34.3458V34.3584V34.371V34.3836V34.3962V34.4089V34.4215V34.4342V34.4469V34.4596V34.4723V34.4851V34.4979V34.5106V34.5234V34.5362V34.549V34.5619V34.5747V34.5876V34.6005V34.6133V34.6262V34.6391V34.6521V34.665V34.6779V34.6909V34.7038V34.7168V34.7298V34.7428V34.7558V34.7688V34.7818V34.7948V34.8079V34.8209V34.834V34.847V34.8601V34.8732V34.8862V34.8993V34.9124V34.9255V34.9386V34.9517V34.9648V34.9779V34.991V35.0041V35.0172V35.0304V35.0435V35.0566V35.0697V35.0829V35.096V35.1091V35.1222V35.1354V35.1485V35.1616V35.1748V35.1879V35.201V35.2141V35.2273V35.2404V35.2535V35.2666V35.2797V35.2928V35.3059V35.319V35.3321V35.3452V35.3583V35.3714V35.3845V35.3975V35.4106V35.4237V35.4367V35.4498V35.4628V35.4758V35.4888V35.5019V35.5149V35.5278V35.5408V35.5538V35.5668V35.5797V35.5927V35.6056V35.6185V35.6314V35.6443V35.6572V35.6701V35.6829V35.6958V35.7086V35.7214V35.7343V35.747V35.7598V35.7726V35.7853V35.7981V35.8108V35.8235V35.8362V35.8488V35.8615V35.8741V35.8867V35.8993V35.9119V35.9245V35.937V35.9495V35.962V35.9745V35.987V35.9994V36.0119V36.0243V36.0366V36.049V36.0613V36.0736V36.0859V36.0982V36.1105V36.1227V36.1349V36.147V36.1592V36.1713V36.1834V36.1955V36.2075V36.2196V36.2316V36.2435V36.2555V36.2674V36.2793V36.2912V36.303V36.3148V36.3266V36.3383V36.35V36.3617V36.3734V36.385V36.3966V36.4047C33.2883 36.5938 32.849 36.806 32.358 37.0239C31.7195 37.3073 31.0712 37.5665 30.5764 37.7568C30.3307 37.8513 30.1267 37.9274 29.9855 37.9793C29.915 38.0053 29.8604 38.0251 29.8243 38.0381L29.7845 38.0524L29.7757 38.0556L29.7746 38.056L29.7743 38.0561L29.7743 38.0561C28.4734 38.5182 27.7933 39.9473 28.2552 41.2484C28.7172 42.5495 30.1465 43.2298 31.4476 42.7678L30.6383 40.4885C31.4476 42.7678 31.4478 42.7677 31.4481 42.7676L31.4486 42.7674L31.4501 42.7669L31.4546 42.7653L31.4694 42.76L31.522 42.7411C31.5668 42.7249 31.6308 42.7017 31.7113 42.6721C31.8721 42.6129 32.0995 42.5281 32.3715 42.4235C32.9121 42.2155 33.6444 41.9233 34.3864 41.594C35.109 41.2732 35.9242 40.881 36.5899 40.4673C36.9135 40.2662 37.3036 39.9983 37.6426 39.6673C37.866 39.4491 38.6333 38.679 38.6333 37.4707V37.4649V37.4591V37.4532V37.4472V37.4411V37.435V37.4288V37.4226V37.4163V37.4099V37.4035V37.397V37.3904V37.3838V37.3771V37.3704V37.3636V37.3567V37.3497V37.3427V37.3357V37.3286V37.3214V37.3141V37.3068V37.2995V37.2921V37.2846V37.277V37.2694V37.2618V37.2541V37.2463V37.2385V37.2306V37.2226V37.2147V37.2066V37.1985V37.1903V37.1821V37.1738V37.1655V37.1571V37.1487V37.1402V37.1317V37.1231V37.1144V37.1057V37.097V37.0882V37.0793V37.0704V37.0614V37.0524V37.0434V37.0343V37.0251V37.0159V37.0066V36.9973V36.988V36.9786V36.9691V36.9596V36.9501V36.9405V36.9309V36.9212V36.9115V36.9017V36.8919V36.882V36.8721V36.8621V36.8521V36.8421V36.832V36.8219V36.8117V36.8015V36.7913V36.781V36.7706V36.7602V36.7498V36.7394V36.7289V36.7183V36.7077V36.6971V36.6865V36.6758V36.665V36.6543V36.6434V36.6326V36.6217V36.6108V36.5998V36.5888V36.5778V36.5667V36.5556V36.5445V36.5333V36.5221V36.5108V36.4996V36.4883V36.4769V36.4655V36.4541V36.4427V36.4312V36.4197V36.4082V36.3966V36.385V36.3734V36.3617V36.35V36.3383V36.3266V36.3148V36.303V36.2912V36.2793V36.2674V36.2555V36.2435V36.2316V36.2196V36.2075V36.1955V36.1834V36.1713V36.1592V36.147V36.1349V36.1227V36.1105V36.0982V36.0859V36.0736V36.0613V36.049V36.0366V36.0243V36.0119V35.9994V35.987V35.9745V35.962V35.9495V35.937V35.9245V35.9119V35.8993V35.8867V35.8741V35.8615V35.8488V35.8362V35.8235V35.8108V35.7981V35.7853V35.7726V35.7598V35.747V35.7343V35.7214V35.7086V35.6958V35.6829V35.6701V35.6572V35.6443V35.6314V35.6185V35.6056V35.5927V35.5797V35.5668V35.5538V35.5408V35.5278V35.5149V35.5019V35.4888V35.4758V35.4628V35.4498V35.4367V35.4237V35.4106V35.3975V35.3845V35.3714V35.3583V35.3452V35.3321V35.319V35.3059V35.2928V35.2797V35.2666V35.2535V35.2404V35.2273V35.2141V35.201V35.1879V35.1748V35.1616V35.1485V35.1354V35.1222V35.1091V35.096V35.0829V35.0697V35.0566V35.0435V35.0304V35.0172V35.0041V34.991V34.9779V34.9648V34.9517V34.9386V34.9255V34.9124V34.8993V34.8862V34.8732V34.8601V34.847V34.834V34.8209V34.8079V34.7948V34.7818V34.7688V34.7558V34.7428V34.7298V34.7168V34.7038V34.6909V34.6779V34.665V34.6521V34.6391V34.6262V34.6133V34.6005V34.5876V34.5747V34.5619V34.549V34.5362V34.5234V34.5106V34.4979V34.4851V34.4723V34.4596V34.4469V34.4342V34.4215V34.4089V34.3962V34.3836V34.371V34.3584V34.3458V34.3332V34.3207V34.3082V34.2957V34.2832V34.2707V34.2583V34.2459V34.2335V34.2211V34.2087V34.1964V34.1841V34.1718V34.1595V34.1473V34.1351V34.1229V34.1107V34.0986V34.0864V34.0744V34.0623V34.0502V34.0382V34.0262V34.0143V34.0023V33.9904V33.9785V33.9667V33.9548V33.943V33.9313V33.9195V33.9078V33.8961V33.8845V33.8728V33.8612V33.8497V33.8381V33.8266V33.8152V33.8037V33.7923V33.781V33.7696V33.7583V33.747V33.7358V33.7246V33.7134V33.7023V33.6912V33.6801V33.6691V33.6581V33.6472V33.6362V33.6254V33.6145V33.6037V33.5929V33.5822V33.5715V33.5609V33.5502V33.5397V33.5291V33.5186V33.5082V33.4978V33.4874V33.4771V33.4668V33.4565V33.4463V33.4362V33.426V33.416V33.4059V33.3959V33.386V33.3761V33.3662V33.3564V33.3467V33.3369V33.3273V33.3176V33.308V33.2985V33.289V33.2796V33.2702V33.2608V33.2515V33.2423V33.2331V33.2239V33.2148V33.2058V33.1968V33.1878V33.1789V33.1701V33.1613V33.1525V33.1439V33.1352V33.1266V33.1181V33.1096V33.1012V33.0928V33.0845V33.0762V33.068V33.0598V33.0518V33.0437V33.0357V33.0278V33.0199V33.0121V33.0043V32.9966V32.989V32.9814V32.9739V32.9664V32.959V32.9516V32.9443V32.9371V32.9299V32.9228V32.9158V32.9088V32.9018V32.895V32.8882V32.8814V32.8747V32.8681V32.8616V32.8551V32.8487V32.8423V32.836V32.8298V32.8236V32.8175V32.8115V32.8055V32.7996V32.7938V32.788V32.7823V32.7767V32.7711V32.7656V32.7602V32.7548V32.7495V32.7443V32.7391V32.7341V32.7291V32.7241V32.7192V32.7144V32.7097V32.7051V32.7005V32.696V32.6915V32.6872V32.6829V32.6787V32.6745V32.6705V32.6665V32.6626V32.6587V32.6549V32.6513V32.6476V32.6441V32.6406V32.6373V32.634V32.6307V32.6276V32.6245V32.6215V32.6186V32.6158V32.613V32.6103V32.6077V32.6052V32.6028V32.6004V32.5982V32.596V32.5939V32.5918V32.5899V32.588V32.5863V32.5846V32.583V32.5814V32.58V32.5787V32.5774V32.5762V32.5751V32.5741V32.5732V32.5723V32.5716V32.5709V32.5703V32.5698V32.5694V32.5691V32.5689V32.5687Z" fill="#A6C73C"/>
</svg>
