<svg width="56" height="55" viewBox="0 0 56 55" fill="none" xmlns="http://www.w3.org/2000/svg">
<path fill-rule="evenodd" clip-rule="evenodd" d="M50.0254 27.5C50.0254 39.9247 39.9405 50 27.5124 50C15.0843 50 4.99935 39.9247 4.99935 27.5C4.99935 15.0753 15.0843 5 27.5124 5C39.9405 5 50.0254 15.0753 50.0254 27.5ZM27.5124 55C42.6985 55 55.0254 42.6895 55.0254 27.5C55.0254 12.3105 42.6985 0 27.5124 0C12.3262 0 -0.000652313 12.3105 -0.000652313 27.5C-0.000652313 42.6895 12.3262 55 27.5124 55ZM33.343 36.7078C34.5623 37.3556 36.0759 36.8922 36.7237 35.6729C37.3714 34.4536 36.9081 32.94 35.6888 32.2922L25.1078 26.6711L35.577 21.7636C36.8271 21.1776 37.3655 19.6891 36.7795 18.4389C36.1935 17.1887 34.705 16.6503 33.4548 17.2364L22.0794 22.5685C18.7206 24.143 18.6023 28.8768 21.8782 30.6171L33.343 36.7078Z" fill="#A6C73C"/>
</svg>
