<svg width="56" height="55" viewBox="0 0 56 55" fill="none" xmlns="http://www.w3.org/2000/svg">
<path fill-rule="evenodd" clip-rule="evenodd" d="M5 27.5C5 15.0753 15.0849 5 27.513 5C39.9411 5 50.026 15.0753 50.026 27.5C50.026 39.9247 39.9411 50 27.513 50C15.0849 50 5 39.9247 5 27.5ZM27.513 0C12.3269 0 0 12.3105 0 27.5C0 42.6895 12.3269 55 27.513 55C42.6992 55 55.026 42.6895 55.026 27.5C55.026 12.3105 42.6992 0 27.513 0ZM21.6822 18.292C20.4627 17.6445 18.9492 18.1081 18.3017 19.3276C17.6542 20.5471 18.1179 22.0605 19.3374 22.708L29.9233 28.3289L19.4491 33.2361C18.1988 33.8219 17.6601 35.3103 18.2459 36.5606C18.8317 37.8109 20.3201 38.3496 21.5704 37.7639L32.9513 32.4318C36.3112 30.8577 36.4296 26.1224 33.1525 24.3824L21.6822 18.292Z" fill="#A6C73C"/>
</svg>
