<svg width="66" height="68" viewBox="0 0 66 68" fill="none" xmlns="http://www.w3.org/2000/svg">
<path fill-rule="evenodd" clip-rule="evenodd" d="M45.6143 11.4799C46.4403 7.33162 43.9193 2.87167 39.9828 1.45494C38.0628 0.707666 36.0346 0.878771 34.3603 1.48835C32.6879 2.09721 31.1128 3.23426 30.1462 4.76721L30.1434 4.77168L20.6778 19.687C20.316 18.8831 19.8153 18.1521 19.1381 17.5233C17.3599 15.8722 14.908 15.4442 12.403 15.4442H9.10202C6.59708 15.4442 4.1451 15.8722 2.36692 17.5233C0.543506 19.2163 0 21.6505 0 24.253V56.7931C0 59.3956 0.543506 61.8298 2.36692 63.5228C4.1451 65.1739 6.59708 65.6019 9.10202 65.6019H12.403C14.908 65.6019 17.3599 65.1739 19.1381 63.5228C20.2239 62.5146 20.8559 61.2437 21.1895 59.831L27.4567 64.9698C28.5073 66.0134 29.9378 66.6333 31.1461 66.999C32.4595 67.3964 33.8702 67.6005 35.0599 67.6005H46.8855C51.7072 67.6005 56.7627 63.9224 58.0105 58.8434L65.447 34.8871C66.432 31.9388 66.0903 28.9653 64.4976 26.676C62.8952 24.3727 60.2236 23.0494 57.1551 23.0494H44.7071C44.5266 23.0494 44.3706 22.9756 44.255 22.8368C44.15 22.7108 44.0068 22.4388 44.071 21.9409L45.6143 11.4799ZM21.505 53.6238L30.7323 61.1897L30.8555 61.2908L30.9649 61.4066C31.1495 61.6021 31.6737 61.9347 32.5942 62.2133C33.4592 62.475 34.3825 62.6005 35.0599 62.6005H46.8855C49.5041 62.6005 52.5086 60.3894 53.1659 57.6047L53.1858 57.5205L53.2115 57.4379L60.6802 33.3777L60.6892 33.3487L60.6989 33.32C61.2573 31.6639 60.9734 30.3654 60.3932 29.5315C59.8173 28.7036 58.7545 28.0494 57.1551 28.0494H44.7071C41.2074 28.0494 38.6203 24.9467 39.1176 21.2601L39.1196 21.2448L39.1219 21.2294L40.6779 10.6825L40.6889 10.6078L40.7044 10.534C41.0707 8.78811 39.8869 6.72339 38.2733 6.15372L38.2277 6.13762L38.1827 6.11977C37.6265 5.89886 36.8728 5.89469 36.0708 6.18667C35.2552 6.4836 34.6533 6.99289 34.3749 7.43524L34.37 7.44304L21.6108 27.5482L21.505 27.481V53.6238ZM5 24.253C5 22.2069 5.4468 21.4866 5.76904 21.1874C6.13652 20.8462 6.98554 20.4442 9.10202 20.4442H12.403C14.5195 20.4442 15.3685 20.8462 15.736 21.1874C16.0582 21.4866 16.505 22.2069 16.505 24.253V56.7931C16.505 58.8392 16.0582 59.5595 15.736 59.8587C15.3685 60.1999 14.5195 60.6019 12.403 60.6019H9.10202C6.98554 60.6019 6.13652 60.1999 5.76904 59.8587C5.4468 59.5595 5 58.8392 5 56.7931V24.253Z" fill="#A6C73C"/>
</svg>
