<svg width="52" height="60" viewBox="0 0 52 60" fill="none" xmlns="http://www.w3.org/2000/svg">
<path fill-rule="evenodd" clip-rule="evenodd" d="M51.9999 15.2153H52V46.2201L51.9994 46.2201L26.0004 59.9997L26.0002 60L25.9999 59.9999L25.9997 60L25.9995 59.9997L0.000508899 46.2201L0.000424202 46.2201L0.000508899 46.2199V15.2162L0 15.2153L26.2854 4.54791e-06L26.2856 0.000390487L26.2859 0L51.9999 15.2153ZM24.2864 6.31579L6.57235 16.9378L15.7151 22.6794L24.2864 17.512V6.31579ZM38.8572 24.4019L47.8571 19.4295V29.3743L38.8572 24.4019ZM13.1431 24.4019L4.14316 29.3743V19.4295L13.1431 24.4019ZM27.7149 6.31582L45.7146 16.9378L36.2862 22.6795L27.7148 17.512L27.7149 6.31582ZM33.8565 26.5759L32.3894 24.819L27.429 29.0013V28.9952H25.1433V28.9971L20.3463 24.9526L18.8574 26.7354L25.1433 32.0352V39.9043H27.429V31.9951L33.8565 26.5759ZM47.7143 34.4498L26.0002 46.5072V49.378L47.7143 37.3206V34.4498ZM26.0002 46.5072L4.28613 34.7368V37.3206L26.0002 49.378V46.5072ZM25.7145 53.11L47.4286 41.0526V43.9234L25.7145 55.9808V55.9809L25.7145 55.9809L4.00049 43.9234V41.3397L25.7145 53.11Z" fill="#DCA945"/>
</svg>
