<svg width="42" height="41" viewBox="0 0 42 41" fill="none" xmlns="http://www.w3.org/2000/svg">
<path fill-rule="evenodd" clip-rule="evenodd" d="M11.4053 0.132812C5.60628 0.132812 0.905273 4.83382 0.905273 10.6328V30.4968C0.905273 36.2958 5.60628 40.9968 11.4053 40.9968H31.2876C37.0866 40.9968 41.7876 36.2958 41.7876 30.4968V10.6328C41.7876 4.83382 37.0866 0.132812 31.2876 0.132812H11.4053ZM5.90527 10.6328C5.90527 7.59525 8.36771 5.13281 11.4053 5.13281H31.2876C34.3252 5.13281 36.7876 7.59525 36.7876 10.6328V30.4968C36.7876 33.5344 34.3252 35.9968 31.2876 35.9968H11.4053C8.36771 35.9968 5.90527 33.5344 5.90527 30.4968V10.6328ZM29.507 15.8256C30.6271 15.0183 30.8806 13.4558 30.0733 12.3357C29.2659 11.2156 27.7034 10.9621 26.5834 11.7694L23.9299 13.682C21.9405 15.116 19.2421 15.0596 17.3143 13.5437L15.2439 11.9158C14.1585 11.0623 12.5868 11.2504 11.7334 12.3357C10.88 13.4211 11.068 14.9928 12.1533 15.8462L14.2237 17.4742C17.904 20.368 23.0555 20.4757 26.8535 17.7382L29.507 15.8256Z" fill="#FCBF49"/>
</svg>
