<svg width="328" height="51" viewBox="0 0 328 51" fill="none" xmlns="http://www.w3.org/2000/svg">
<path fill-rule="evenodd" clip-rule="evenodd" d="M95.6543 3.00354C95.6543 1.34669 96.9974 0.00354004 98.6543 0.00354004H324.088C325.745 0.00354004 327.088 1.34669 327.088 3.00354C327.088 4.66039 325.745 6.00354 324.088 6.00354H98.6543C96.9974 6.00354 95.6543 4.66039 95.6543 3.00354ZM0 26.2775C0 24.6206 1.34315 23.2775 3 23.2775H166.714C168.371 23.2775 169.714 24.6206 169.714 26.2775C169.714 27.9343 168.371 29.2775 166.714 29.2775H3C1.34315 29.2775 0 27.9343 0 26.2775ZM132.6 44.9999C130.943 44.9999 129.6 46.343 129.6 47.9999C129.6 49.6567 130.943 50.9999 132.6 50.9999H237.686C239.343 50.9999 240.686 49.6567 240.686 47.9999C240.686 46.343 239.343 44.9999 237.686 44.9999H132.6Z" fill="#DCA945"/>
</svg>
