<svg width="40" height="40" viewBox="0 0 40 40" fill="none" xmlns="http://www.w3.org/2000/svg">
<path d="M30.2333 36.0333C28.7666 36.4667 27.0333 36.6667 24.9999 36.6667H14.9999C12.9666 36.6667 11.2333 36.4667 9.7666 36.0333C10.1333 31.7 14.5833 28.2833 19.9999 28.2833C25.4166 28.2833 29.8666 31.7 30.2333 36.0333Z" stroke="#DCA945" stroke-width="4" stroke-linecap="round" stroke-linejoin="round"/>
<path d="M25.0007 3.33333H15.0007C6.66732 3.33333 3.33398 6.66667 3.33398 15V25C3.33398 31.3 5.23399 34.75 9.76732 36.0333C10.134 31.7 14.584 28.2833 20.0007 28.2833C25.4173 28.2833 29.8673 31.7 30.234 36.0333C34.7673 34.75 36.6673 31.3 36.6673 25V15C36.6673 6.66667 33.334 3.33333 25.0007 3.33333ZM20.0007 23.6166C16.7007 23.6166 14.034 20.9334 14.034 17.6334C14.034 14.3334 16.7007 11.6667 20.0007 11.6667C23.3007 11.6667 25.9673 14.3334 25.9673 17.6334C25.9673 20.9334 23.3007 23.6166 20.0007 23.6166Z" stroke="#DCA945" stroke-width="4" stroke-linecap="round" stroke-linejoin="round"/>
<path d="M25.9665 17.6334C25.9665 20.9334 23.2999 23.6166 19.9999 23.6166C16.6999 23.6166 14.0332 20.9334 14.0332 17.6334C14.0332 14.3334 16.6999 11.6667 19.9999 11.6667C23.2999 11.6667 25.9665 14.3334 25.9665 17.6334Z" stroke="#DCA945" stroke-width="4" stroke-linecap="round" stroke-linejoin="round"/>
</svg>
