<svg width="42" height="41" viewBox="0 0 42 41" fill="none" xmlns="http://www.w3.org/2000/svg">
<path fill-rule="evenodd" clip-rule="evenodd" d="M15.5404 2.11494C17.1948 3.49172 18.2638 5.3546 19.0583 7.05775C20.2836 9.68457 20.3374 13.3017 17.7148 15.7446C17.5227 15.9235 17.3339 16.0943 17.1619 16.2496L17.1091 16.2972L17.1089 16.2975C16.954 16.4372 16.8158 16.5619 16.6842 16.6835C16.6186 16.7441 16.5586 16.8003 16.5037 16.8526C16.7551 17.16 17.0722 17.5267 17.4445 17.9395C18.3238 18.9144 19.4513 20.0802 20.6136 21.2145C21.7786 22.3514 22.948 23.4267 23.9113 24.2304C24.2113 24.4807 24.4795 24.6947 24.7122 24.8708C26.6171 22.1881 29.9385 21.2224 32.916 21.9763C35.2103 22.5572 37.0766 23.4424 38.5149 24.7049C39.9779 25.989 40.8581 27.5408 41.3552 29.2121C41.9915 31.3511 41.5187 33.5146 40.561 35.2036C39.758 36.6199 38.9033 37.733 37.8934 38.6054C36.8702 39.4893 35.7994 40.0293 34.7031 40.4327C33.339 40.9346 31.9503 41.0092 30.7234 40.906C28.5998 40.7274 26.4751 40.46 23.5404 39.0188C20.7226 37.6351 17.2335 35.2096 12.1587 30.9216C1.57075 21.9755 0.82495 13.1627 0.849684 10.7432C0.852873 10.4312 0.866954 10.1385 0.883503 9.86445C0.936277 8.99056 1.15279 6.84494 2.15072 4.78925C3.19235 2.6435 5.2254 0.379937 8.81053 0.104554C11.5664 -0.107131 13.7913 0.659464 15.5404 2.11494ZM16.0209 17.3721C16.0208 17.3721 16.0218 17.3704 16.0242 17.3668C16.0221 17.3703 16.0209 17.3721 16.0209 17.3721ZM12.3421 5.95829C11.6358 5.37054 10.7094 4.97343 9.19347 5.08987C7.91222 5.18828 7.17927 5.8799 6.64874 6.97278C6.07449 8.15571 5.91268 9.53216 5.87441 10.1658C5.86038 10.3981 5.85142 10.5991 5.84942 10.7943C5.83717 11.9931 6.12649 19.279 15.3857 27.1024C20.3655 31.3101 23.4826 33.4201 25.7443 34.5308C27.8892 35.584 29.3174 35.7701 31.1424 35.9236C31.8793 35.9856 32.4911 35.9188 32.9765 35.7402C33.6813 35.4809 34.178 35.2077 34.6249 34.8216C35.085 34.4241 35.6031 33.8106 36.2115 32.7374C36.6482 31.9673 36.7325 31.2083 36.5628 30.6377C36.2953 29.7387 35.8762 29.0416 35.2166 28.4627C34.5324 27.8621 33.4527 27.27 31.6887 26.8234C30.4772 26.5166 29.3503 26.9541 28.7711 27.7911C28.751 27.82 28.7295 27.8515 28.7064 27.8851L28.7064 27.8852C28.4337 28.2827 27.9522 28.9849 27.3174 29.4773C26.9074 29.7953 26.3888 30.0728 25.7537 30.1985C25.1283 30.3222 24.5348 30.27 24.0079 30.1385C23.3094 29.9641 22.662 29.5431 22.2702 29.2742C21.7876 28.9428 21.2537 28.5248 20.7081 28.0696C19.6115 27.1547 18.3416 25.9836 17.1215 24.793C15.8989 23.5998 14.6954 22.3568 13.7317 21.2884C13.2509 20.7553 12.8146 20.2489 12.4599 19.8033C12.1411 19.4028 11.7719 18.9091 11.5368 18.4396C11.1116 17.5905 11.0492 16.6852 11.2802 15.8453C11.4867 15.0941 11.8955 14.5089 12.2254 14.1083C12.6831 13.5524 13.3645 12.9386 13.892 12.4633L13.892 12.4633C14.0467 12.3239 14.1882 12.1965 14.3069 12.0859C14.8706 11.5608 15.1425 10.4909 14.527 9.17139C13.8335 7.68461 13.143 6.62474 12.3421 5.95829ZM23.5823 7.59411C23.9312 6.54607 25.0636 5.97927 26.1116 6.32811C26.3442 6.40552 26.5695 6.47883 26.7879 6.54985C27.6652 6.83524 28.4284 7.08351 29.0837 7.4107C30.0202 7.87826 30.7421 8.48876 31.6633 9.4087C32.5895 10.3336 33.2699 11.127 33.829 12.104C34.3706 13.0504 34.7481 14.0849 35.1828 15.387C35.5325 16.4348 34.9667 17.5676 33.919 17.9174C32.8712 18.2671 31.7383 17.7013 31.3886 16.6536C30.9559 15.3575 30.683 14.6599 30.3573 14.0907C30.0491 13.5521 29.6453 13.0464 28.8369 12.2392C28.0236 11.427 27.6614 11.1714 27.2969 10.9894C26.9301 10.8063 26.5352 10.6771 25.7367 10.4159L25.7367 10.4159C25.4847 10.3335 25.1925 10.2379 24.8483 10.1234C23.8003 9.77454 23.2335 8.64215 23.5823 7.59411ZM27.4134 0.698766C26.3653 0.349921 25.2329 0.916728 24.8841 1.96477C24.5352 3.0128 25.1021 4.1452 26.1501 4.49404C26.6472 4.6595 27.0803 4.80105 27.4629 4.92608L27.4629 4.92609C28.7409 5.34377 29.4549 5.57709 30.1044 5.90138C30.8302 6.26379 31.4936 6.75993 32.7888 8.05325C34.079 9.34164 34.7839 10.2082 35.333 11.1678C35.8997 12.158 36.3533 13.3367 37.0269 15.3545C37.3766 16.4023 38.5095 16.9681 39.5572 16.6183C40.605 16.2686 41.1708 15.1357 40.8211 14.088C40.1455 12.0642 39.5873 10.5485 38.8048 9.18108C38.0048 7.78308 37.0232 6.6288 35.6152 5.22279C34.2121 3.8217 33.189 2.97064 31.8912 2.32264C30.9532 1.85432 29.8707 1.50181 28.5167 1.06086L28.5167 1.06085L28.5165 1.0608C28.1676 0.947162 27.8006 0.82765 27.4134 0.698766Z" fill="#DCA945"/>
</svg>
