<svg width="41" height="41" viewBox="0 0 41 41" fill="none" xmlns="http://www.w3.org/2000/svg">
<path fill-rule="evenodd" clip-rule="evenodd" d="M40.5637 5.13219C40.676 3.86433 40.341 2.50232 39.2993 1.5006C38.2739 0.514659 36.9266 0.226937 35.7103 0.333354C32.1395 0.645755 25.0621 1.81273 18.2355 3.66687C14.8165 4.59546 11.3908 5.7149 8.46573 7.01707C5.61782 8.28491 2.93031 9.85975 1.30364 11.8407C-0.963388 14.6014 0.410595 17.9841 2.05168 19.6924C3.70579 21.4143 5.47902 22.4955 7.32164 23.3775C8.22727 23.8109 9.16811 24.2046 10.1031 24.5918L10.383 24.7076L10.383 24.7076C11.2412 25.0626 12.1074 25.421 13.0235 25.8317C13.1677 25.8963 13.3057 25.967 13.4371 26.0431C13.4524 26.0604 13.4681 26.0774 13.484 26.0944C13.701 26.325 13.9514 26.5053 14.2206 26.6347C14.4262 26.8366 14.6003 27.0564 14.7396 27.2894C15.5801 28.6946 16.1646 30.0474 16.7947 31.5054C16.9762 31.9256 17.1616 32.3546 17.358 32.7961C18.202 34.6939 19.2206 36.7358 20.9583 38.56C23.2054 40.9188 27.4215 41.6423 29.9989 38.564C31.5778 36.6782 32.9477 34.0015 34.1212 31.1257C35.3116 28.2083 36.3707 24.9065 37.2681 21.6409C39.0556 15.1366 40.2603 8.55903 40.5637 5.13219ZM18.8678 24.462C18.9236 24.5476 18.9779 24.6346 19.0307 24.7229C20.0573 26.4393 20.8073 28.179 21.4524 29.6753L21.4524 29.6755C21.6163 30.0555 21.7734 30.4199 21.9265 30.7642C22.716 32.5393 23.454 33.9307 24.5786 35.1113C24.8995 35.4481 25.2814 35.5929 25.5731 35.6057C25.8283 35.6169 26.0118 35.5374 26.1652 35.3542C27.2456 34.0637 28.3827 31.9548 29.4917 29.2367C30.5839 26.5601 31.5829 23.4598 32.4469 20.316C34.0608 14.4432 35.1527 8.60889 35.5142 5.3754C32.077 5.73573 25.7189 6.81548 19.546 8.49206C16.2647 9.38328 13.1054 10.4247 10.4992 11.5849C7.81593 12.7794 6.02605 13.9686 5.16778 15.0138L5.16502 15.0171C5.14483 15.041 5.10096 15.093 5.13639 15.2943C5.18092 15.5473 5.34643 15.9048 5.65747 16.2286C6.76269 17.3791 7.97309 18.146 9.48036 18.8675C10.2497 19.2357 11.0753 19.5826 12.0162 19.9722L12.2971 20.0885C13.1284 20.4323 14.0376 20.8084 14.9982 21.2375L23.1878 13.5334C24.1935 12.5873 25.7756 12.6356 26.7217 13.6413C27.6677 14.6469 27.6194 16.2291 26.6138 17.1752L18.8678 24.462Z" fill="#DCA945"/>
</svg>
